HIERARCHY
ROOT SpineBase
{
  OFFSET 0.000000 0.000000 0.000000
  CHANNELS 6 Xposition Yposition Zposition Zrotation Xrotation Yrotation
  JOINT SpineMid
  {
    OFFSET -0.000000 23.306267 0.000000
    CHANNELS 3 Zrotation Xrotation Yrotation
    JOINT SpineShoulder
    {
      OFFSET -0.495056 18.494492 -0.812882
      CHANNELS 3 Zrotation Xrotation Yrotation
      JOINT Neck
      {
        OFFSET -0.118139 6.376100 -0.611441
        CHANNELS 3 Zrotation Xrotation Yrotation
        JOINT Head
        {
          OFFSET -0.298623 10.360223 0.961639
          CHANNELS 3 Zrotation Xrotation Yrotation
          End Site
          {
            OFFSET 0 0 0
          }
        }
      }
      JOINT ShoulderLeft
      {
        OFFSET -7.883961 -8.042623 14.701010
        CHANNELS 3 Zrotation Xrotation Yrotation
        JOINT ElbowLeft
        {
          OFFSET -2.957015 -20.171471 -2.027253
          CHANNELS 3 Zrotation Xrotation Yrotation
          JOINT WristLeft
          {
            OFFSET -1.516700 -20.554200 -8.837318
            CHANNELS 3 Zrotation Xrotation Yrotation
            JOINT HandLeft
            {
              OFFSET 2.541428 -6.560239 -0.220282
              CHANNELS 3 Zrotation Xrotation Yrotation
              JOINT HandTipLeft
              {
                OFFSET -1.260146 -4.765626 -1.654082
                CHANNELS 3 Zrotation Xrotation Yrotation
                End Site
                {
                  OFFSET 0 0 0
                }
              }
              JOINT ThumbLeft
              {
                OFFSET -1.996593 0.393911 -4.331116
                CHANNELS 3 Zrotation Xrotation Yrotation
                End Site
                {
                  OFFSET 0 0 0
                }
              }
            }
          }
        }
      }
      JOINT ShoulderRight
      {
        OFFSET 16.730438 -6.222486 1.828586
        CHANNELS 3 Zrotation Xrotation Yrotation
        JOINT ElbowRight
        {
          OFFSET -9.470386 21.576676 -7.635091
          CHANNELS 3 Zrotation Xrotation Yrotation
          JOINT WristRight
          {
            OFFSET -7.471632 22.797602 -1.952378
            CHANNELS 3 Zrotation Xrotation Yrotation
            JOINT HandRight
            {
              OFFSET -2.879268 7.359879 1.301602
              CHANNELS 3 Zrotation Xrotation Yrotation
              JOINT HandTipRight
              {
                OFFSET 1.292498 4.491646 -1.137475
                CHANNELS 3 Zrotation Xrotation Yrotation
                End Site
                {
                  OFFSET 0 0 0
                }
              }
              JOINT ThumbRight
              {
                OFFSET -0.789206 1.424483 -3.765458
                CHANNELS 3 Zrotation Xrotation Yrotation
                End Site
                {
                  OFFSET 0 0 0
                }
              }
            }
          }
        }
      }
    }
  }
  JOINT HipLeft
  {
    OFFSET -4.648358 -0.217034 -0.602914
    CHANNELS 3 Zrotation Xrotation Yrotation
    JOINT KneeLeft
    {
      OFFSET 4.803307 -37.212052 -9.692826
      CHANNELS 3 Zrotation Xrotation Yrotation
      JOINT AnkleLeft
      {
        OFFSET -0.438654 -26.367469 -0.751110
        CHANNELS 3 Zrotation Xrotation Yrotation
        JOINT FootLeft
        {
          OFFSET 2.700456 -6.640465 -6.197188
          CHANNELS 3 Zrotation Xrotation Yrotation
          End Site
          {
            OFFSET 0 0 0
          }
        }
      }
    }
  }
  JOINT HipRight
  {
    OFFSET 1.947997 1.889656 -3.465053
    CHANNELS 3 Zrotation Xrotation Yrotation
    JOINT KneeRight
    {
      OFFSET 7.514374 -30.696619 -12.506482
      CHANNELS 3 Zrotation Xrotation Yrotation
      JOINT AnkleRight
      {
        OFFSET -2.839491 -25.539035 -8.137192
        CHANNELS 3 Zrotation Xrotation Yrotation
        JOINT FootRight
        {
          OFFSET -3.252762 2.437415 -5.216824
          CHANNELS 3 Zrotation Xrotation Yrotation
          End Site
          {
            OFFSET 0 0 0
          }
        }
      }
    }
  }
}
MOTION
Frames: 9
Frame Time: 0.033333
180.250710 85.878706 272.680692 7.233676 1.648928 3.255656 0.786933 2.464371 -3.067970 1.181534 0.489438 0.504041 -6.862363 3.870383 -1.257094 0.000000 0.000000 0.000000 4.658067 33.405186 -11.907667 40.096216 37.155840 -23.495586 -16.323808 9.410997 46.506825 -44.262866 49.583820 -79.281771 0.000000 0.000000 0.000000 0.000000 0.000000 0.000000 -10.066689 -9.616395 -3.940228 -10.568139 12.766775 6.088861 47.776094 -18.968834 -2.260445 3.025162 8.157731 20.244477 0.000000 0.000000 0.000000 0.000000 0.000000 0.000000 -13.551862 -9.033293 -3.558638 11.563777 6.659323 -1.735558 6.920865 53.014840 2.990154 0.000000 0.000000 0.000000 -14.584805 -11.965609 -4.377638 9.212238 13.827799 -2.225086 46.591723 -62.885545 18.265206 0.000000 0.000000 0.000000
180.133310 85.153680 272.158116 5.823657 1.811330 -1.661228 0.629461 2.640748 1.838316 1.134798 0.537750 0.431513 -1.835209 3.456071 -1.375254 0.000000 0.000000 0.000000 14.431510 34.179986 -15.263535 33.941772 35.986010 -24.003454 -18.684291 7.973168 45.769705 -32.121740 56.163465 -88.850175 0.000000 0.000000 0.000000 0.000000 0.000000 0.000000 -7.655859 -7.330008 -2.177771 -6.754569 8.804518 3.297627 28.621914 -15.314543 -3.934877 24.859857 -7.134797 28.245178 0.000000 0.000000 0.000000 0.000000 0.000000 0.000000 -11.026486 -11.278950 1.091266 12.837445 8.829004 -2.024060 -2.497631 61.825541 13.041574 0.000000 0.000000 0.000000 -10.903941 -12.559074 0.393134 5.632677 12.303434 -0.434872 -0.014384 -52.856706 -34.594697 0.000000 0.000000 0.000000
180.185965 84.332113 271.696920 4.261939 2.187539 -4.126946 0.085447 2.426697 4.280986 1.252129 0.601825 0.349894 5.917498 2.988126 -1.531827 0.000000 0.000000 0.000000 22.998044 34.204405 -17.722776 27.780694 32.503201 -22.833163 -17.648775 4.972632 44.442193 -47.464501 45.011335 -71.931536 0.000000 0.000000 0.000000 0.000000 0.000000 0.000000 -5.346671 -2.799753 0.316385 -3.346873 1.473127 -0.239335 19.116824 -13.828994 -4.944186 26.710288 2.128904 19.482845 0.000000 0.000000 0.000000 0.000000 0.000000 0.000000 -8.666865 -12.638275 3.432684 14.718729 11.695417 -2.603625 -51.682683 65.803181 62.613034 0.000000 0.000000 0.000000 -8.572617 -12.676857 2.997114 3.709305 11.373299 0.439433 -13.358594 -11.500192 -43.809064 0.000000 0.000000 0.000000
180.381511 83.709866 271.444422 3.958478 3.032933 -3.999745 -0.170146 2.153359 4.135285 1.319604 0.777844 0.328716 10.402307 0.394776 -1.395991 0.000000 0.000000 0.000000 24.645658 33.153137 -17.643635 27.561443 33.036004 -23.965894 -16.664470 6.431117 46.021513 -48.499826 45.588666 -74.258829 0.000000 0.000000 0.000000 0.000000 0.000000 0.000000 -5.893548 -1.222990 0.933516 0.021108 -2.538292 -1.211221 16.863129 -16.252671 -6.194693 23.717736 17.118224 10.645548 0.000000 0.000000 0.000000 0.000000 0.000000 0.000000 -8.357054 -13.907039 3.116973 15.685432 13.851056 -3.037656 -86.371936 55.508660 98.130463 0.000000 0.000000 0.000000 -9.058953 -13.760226 2.903972 5.624228 11.136628 -0.397172 -18.331753 15.207571 -33.017271 0.000000 0.000000 0.000000
180.456594 83.317864 271.431783 4.387686 4.009100 -2.877376 -0.374426 1.683041 2.987130 1.418365 0.931659 0.347014 10.563443 -2.684850 -1.041225 0.000000 0.000000 0.000000 24.554898 33.517582 -17.903120 26.793811 32.352968 -22.923562 -16.682304 6.455382 45.965073 -48.365731 45.279287 -74.245964 0.000000 0.000000 0.000000 0.000000 0.000000 0.000000 -4.730205 -3.771009 0.638207 -0.894454 -2.798047 -1.558493 13.687219 -8.670449 -4.630148 22.726288 21.892894 3.352109 0.000000 0.000000 0.000000 0.000000 0.000000 0.000000 -9.018006 -14.290254 1.857738 15.901610 14.192457 -3.125280 -97.750388 31.875318 109.359987 0.000000 0.000000 0.000000 -9.170148 -14.019745 1.570480 6.278366 8.957003 -0.632437 -14.915618 21.000088 1.239798 0.000000 0.000000 0.000000
180.532839 83.531048 271.338585 4.081495 4.483883 -0.669927 -0.650430 1.483280 0.752248 1.564047 1.084258 0.336189 15.653823 -3.571078 -0.818179 0.000000 0.000000 0.000000 26.073781 32.986211 -17.974126 25.355648 31.685657 -22.680984 -16.815279 6.552543 45.575786 -48.185197 44.976036 -73.696381 0.000000 0.000000 0.000000 0.000000 0.000000 0.000000 -2.038945 -7.045415 0.508355 -3.503429 1.098668 -0.757191 14.752980 -11.979420 -5.302329 19.733545 20.161828 5.932579 0.000000 0.000000 0.000000 0.000000 0.000000 0.000000 -9.282210 -13.947125 -0.360811 15.474050 11.573472 -2.759250 -93.633256 14.537628 104.293808 0.000000 0.000000 0.000000 -9.331880 -13.968322 -0.700474 4.465819 10.191522 0.053628 -8.241166 14.565460 3.462852 0.000000 0.000000 0.000000
180.567287 83.997067 271.224370 4.098717 4.566155 6.917103 -0.813107 1.049100 -6.857395 1.640136 1.349442 0.325467 16.808087 -0.331303 -1.337024 0.000000 0.000000 0.000000 26.078846 31.274742 -17.090909 25.006117 32.238272 -23.681618 -17.051953 6.713940 44.888717 -47.703236 44.622982 -72.802178 0.000000 0.000000 0.000000 0.000000 0.000000 0.000000 -2.304763 -7.432972 0.078941 -2.475045 1.546127 -0.317686 25.783124 -8.604987 -5.330386 7.025516 19.368451 7.173716 0.000000 0.000000 0.000000 0.000000 0.000000 0.000000 -10.971620 -11.638845 -7.825469 15.813724 10.251099 -2.706887 -94.975610 15.359675 105.915191 0.000000 0.000000 0.000000 -12.252468 -14.253000 -8.731270 6.593976 14.103245 -0.908211 1.830241 1.964675 12.736776 0.000000 0.000000 0.000000
180.586337 84.051557 271.136943 4.262598 4.231017 9.327801 -0.595339 1.200718 -9.252984 1.420730 1.207790 0.311599 13.482643 1.583361 -1.548192 0.000000 0.000000 0.000000 26.570468 31.942300 -17.642627 24.438954 31.578181 -23.142488 -17.105140 6.746463 44.726717 -47.703088 44.698774 -72.519032 0.000000 0.000000 0.000000 0.000000 0.000000 0.000000 -2.066045 -8.240545 -0.237990 -4.188577 4.506142 0.648494 26.429592 -9.769366 -4.781860 7.300522 15.094156 9.157770 0.000000 0.000000 0.000000 0.000000 0.000000 0.000000 -11.385326 -10.152744 -10.038830 16.181667 10.528550 -2.807716 -89.703780 20.605264 98.205954 0.000000 0.000000 0.000000 -12.994302 -13.101780 -10.959332 7.245051 13.590239 -1.261850 5.142575 0.424198 17.571003 0.000000 0.000000 0.000000
180.577868 84.154958 271.070560 4.143634 4.227016 9.688710 -0.672468 1.215154 -9.619508 1.356979 1.234936 0.294005 14.422732 2.026253 -1.598963 0.000000 0.000000 0.000000 26.307237 31.219004 -17.068599 24.938239 32.157884 -23.767551 -17.128241 6.756233 44.679304 -47.663588 44.734066 -72.473501 0.000000 0.000000 0.000000 0.000000 0.000000 0.000000 -3.443726 -7.682922 -0.743632 -1.761583 3.598268 0.856123 24.321239 -6.070663 -4.254425 9.692764 14.842249 6.975641 0.000000 0.000000 0.000000 0.000000 0.000000 0.000000 -11.262955 -9.868799 -10.346147 15.846399 11.289178 -2.825543 -81.873770 33.900878 90.018319 0.000000 0.000000 0.000000 -12.847144 -12.643193 -11.177285 8.772620 11.844714 -1.954903 7.644087 -5.054787 15.244877 0.000000 0.000000 0.000000
